<svg xmlns="http://www.w3.org/2000/svg" viewBox="0 0 93.19 34.86"><defs><style>.cls-1{fill:#1e7198;}.cls-2{fill:#262424;}</style></defs><title>logo</title><g id="CONTACTO_GRAL" data-name="CONTACTO GRAL"><path class="cls-1" d="M27.62,5.21l0-.13a6.09,6.09,0,0,0-1.33-2.53A6.44,6.44,0,0,0,23.66.87a12.19,12.19,0,0,0-4.2-.61H0v5H27.62ZM0,23.6H7.33l-.06-5.87H21.5a6.59,6.59,0,0,0,3.15-.67,5.7,5.7,0,0,0,2-1.76,7,7,0,0,0,1.06-2.4A11.33,11.33,0,0,0,28,10.25v-1H20.3v.86a2.83,2.83,0,0,1-.51,1.75,2.05,2.05,0,0,1-1.79.73H6.89l0-3.34H0ZM59.46,5.21a9.19,9.19,0,0,0-.18-1.11,4.25,4.25,0,0,0-1.2-2.18A6.06,6.06,0,0,0,55.36.5,19,19,0,0,0,50.47,0h-10a18.81,18.81,0,0,0-5.29.58,6.11,6.11,0,0,0-2.8,1.58A4.26,4.26,0,0,0,31.3,4.53c0,.22-.06.45-.08.68ZM31.19,17.57a8,8,0,0,0,.55,3.13,4.09,4.09,0,0,0,1.63,1.92,7.58,7.58,0,0,0,2.83,1,27.48,27.48,0,0,0,4.17.27h8.68a51.1,51.1,0,0,0,5.83-.26,8.58,8.58,0,0,0,3.54-1.05,4,4,0,0,0,1.75-2.22,11.79,11.79,0,0,0,.45-3.79,11.17,11.17,0,0,0-.62-4,4.26,4.26,0,0,0-2.11-2.26,11.42,11.42,0,0,0-4.2-1L52.6,9.22H31.21A11.2,11.2,0,0,0,31.52,11a3.54,3.54,0,0,0,1.61,2.15,9.22,9.22,0,0,0,3.64,1.06,56.61,56.61,0,0,0,6.42.29c2.3,0,4.12,0,5.47.05a16.91,16.91,0,0,1,3,.27,2,2,0,0,1,1.29.65,2.11,2.11,0,0,1,.29,1.19A1.89,1.89,0,0,1,53,17.73a1.68,1.68,0,0,1-.69.6,2.67,2.67,0,0,1-1,.26c-.36,0-.74.05-1.12.05H41.45a10.81,10.81,0,0,1-1.35-.07,1.94,1.94,0,0,1-1-.34,1.7,1.7,0,0,1-.59-.8A4.69,4.69,0,0,1,38.33,16H31.18ZM92,5.21q-.08-.58-.18-1.11a4.25,4.25,0,0,0-1.2-2.18A6.18,6.18,0,0,0,87.88.5,19.15,19.15,0,0,0,83,0H73a18.73,18.73,0,0,0-5.28.58A6.15,6.15,0,0,0,64.9,2.16a4.26,4.26,0,0,0-1.09,2.37c0,.22-.05.45-.08.68ZM63.71,17.57a8.18,8.18,0,0,0,.54,3.13,4.2,4.2,0,0,0,1.63,1.92,7.71,7.71,0,0,0,2.83,1,27.62,27.62,0,0,0,4.18.27h8.67a51.3,51.3,0,0,0,5.84-.26,8.53,8.53,0,0,0,3.53-1.05,4,4,0,0,0,1.76-2.22,12.38,12.38,0,0,0,.45-3.79,11.39,11.39,0,0,0-.62-4,4.28,4.28,0,0,0-2.12-2.26,11.32,11.32,0,0,0-4.2-1l-1.08-.07H63.73A11.28,11.28,0,0,0,64,11a3.59,3.59,0,0,0,1.62,2.15,9.12,9.12,0,0,0,3.64,1.06,56.54,56.54,0,0,0,6.41.29c2.31,0,4.13,0,5.47.05a17,17,0,0,1,3,.27,2.05,2.05,0,0,1,1.29.65,2.2,2.2,0,0,1,.29,1.19,1.89,1.89,0,0,1-.25,1.06,1.68,1.68,0,0,1-.69.6,2.78,2.78,0,0,1-1,.26c-.36,0-.74.05-1.13.05H74a10.88,10.88,0,0,1-1.36-.07,1.9,1.9,0,0,1-1-.34,1.64,1.64,0,0,1-.59-.8A4.41,4.41,0,0,1,70.85,16H63.69Z"/><path class="cls-2" d="M79.42,27H80v-.81h-.6Zm0,6.08H80V28.21h-.6Zm-2.94,0h.85l1.36-4.85h-.63l-1.15,4.25h0l-1.14-4.25h-.63Zm-4.43,0h.6V29.68c0-.68.31-1,.92-1a1.55,1.55,0,0,1,.42.05.5.5,0,0,1,.24.19.76.76,0,0,1,.11.35c0,.15,0,.33,0,.55h.55v-.38a1.49,1.49,0,0,0-.27-1,1.08,1.08,0,0,0-.85-.29,1.25,1.25,0,0,0-.7.16,1.23,1.23,0,0,0-.42.51h0v-.59h-.6Zm-1-2.28v-.73a5.26,5.26,0,0,0-.06-.86,1.35,1.35,0,0,0-.24-.6,1.13,1.13,0,0,0-.51-.35,3,3,0,0,0-.88-.11,3.12,3.12,0,0,0-.89.11,1,1,0,0,0-.55.39,1.83,1.83,0,0,0-.27.77,8.38,8.38,0,0,0-.07,1.24c0,.49,0,.9.05,1.22a1.89,1.89,0,0,0,.24.77,1,1,0,0,0,.54.4,3.49,3.49,0,0,0,.95.11,4.22,4.22,0,0,0,.88-.07,1.21,1.21,0,0,0,.51-.23.8.8,0,0,0,.24-.42A2.77,2.77,0,0,0,71,31.8v-.18h-.6a2.44,2.44,0,0,1,0,.55.46.46,0,0,1-.18.29.73.73,0,0,1-.36.11l-.6,0a1.78,1.78,0,0,1-.51-.06.59.59,0,0,1-.31-.22,1.15,1.15,0,0,1-.15-.42,4,4,0,0,1,0-.66v-.45Zm-2.81-.61c0-.26,0-.48,0-.66a1.19,1.19,0,0,1,.13-.47.6.6,0,0,1,.33-.27,1.68,1.68,0,0,1,.63-.09,1.75,1.75,0,0,1,.63.09.66.66,0,0,1,.32.27,1.19,1.19,0,0,1,.13.47c0,.18,0,.4,0,.66Zm-5.74,1.27a2.88,2.88,0,0,0,.11.85,1.1,1.1,0,0,0,.37.52,1.47,1.47,0,0,0,.66.26,5.6,5.6,0,0,0,1,.07,4.61,4.61,0,0,0,1-.08,1.33,1.33,0,0,0,.66-.28,1.21,1.21,0,0,0,.36-.59,3.43,3.43,0,0,0,.12-1,4.37,4.37,0,0,0-.09-1,1.12,1.12,0,0,0-.31-.58,1.23,1.23,0,0,0-.63-.28,9.76,9.76,0,0,0-1-.12,4.14,4.14,0,0,1-.76-.1,1,1,0,0,1-.44-.19.71.71,0,0,1-.2-.36,3.2,3.2,0,0,1,0-.59,3.49,3.49,0,0,1,0-.62.58.58,0,0,1,.17-.37.9.9,0,0,1,.43-.19,5.08,5.08,0,0,1,.76,0,4.78,4.78,0,0,1,.71,0,1.19,1.19,0,0,1,.44.18.73.73,0,0,1,.24.35,2,2,0,0,1,.06.55V28h.61a5.55,5.55,0,0,0-.11-1,1,1,0,0,0-.31-.59,1.25,1.25,0,0,0-.62-.3,5.53,5.53,0,0,0-1-.08,6.66,6.66,0,0,0-1,.06,1.23,1.23,0,0,0-.64.25,1.15,1.15,0,0,0-.34.58,3.74,3.74,0,0,0-.11,1,4.87,4.87,0,0,0,.06.83,1.23,1.23,0,0,0,.23.53,1,1,0,0,0,.44.31,2.92,2.92,0,0,0,.71.15l.71.05a5.64,5.64,0,0,1,.78.13.88.88,0,0,1,.41.21.69.69,0,0,1,.15.37c0,.14,0,.33,0,.54a3.81,3.81,0,0,1,0,.76.69.69,0,0,1-.19.42.73.73,0,0,1-.45.16,7.15,7.15,0,0,1-.77,0,7.69,7.69,0,0,1-.78,0,.92.92,0,0,1-.46-.17.61.61,0,0,1-.22-.35,2.53,2.53,0,0,1-.06-.62v-.4h-.6Zm-3.56-.66v-.73a5.26,5.26,0,0,0-.06-.86,1.35,1.35,0,0,0-.24-.6,1.11,1.11,0,0,0-.52-.35,2.93,2.93,0,0,0-.87-.11,3.12,3.12,0,0,0-.89.11,1,1,0,0,0-.55.39,1.83,1.83,0,0,0-.27.77,8.38,8.38,0,0,0-.07,1.24c0,.49,0,.9,0,1.22a1.63,1.63,0,0,0,.24.77,1,1,0,0,0,.54.4,3.44,3.44,0,0,0,1,.11,4.11,4.11,0,0,0,.87-.07,1.2,1.2,0,0,0,.52-.23.8.8,0,0,0,.24-.42,2.77,2.77,0,0,0,.06-.62v-.18h-.61a2.56,2.56,0,0,1,0,.55.5.5,0,0,1-.18.29.73.73,0,0,1-.36.11l-.6,0a1.78,1.78,0,0,1-.51-.06.55.55,0,0,1-.31-.22,1,1,0,0,1-.16-.42,5.83,5.83,0,0,1,0-.66v-.45Zm-2.81-.61c0-.26,0-.48,0-.66a1.2,1.2,0,0,1,.12-.47.68.68,0,0,1,.33-.27,1.75,1.75,0,0,1,.63-.09,1.72,1.72,0,0,1,.63.09.64.64,0,0,1,.33.27,1,1,0,0,1,.12.47,6.44,6.44,0,0,1,0,.66Zm-2.35,2.89h.61V26.17h-.61Zm-4-1.47a.85.85,0,0,1,.28-.75,1.53,1.53,0,0,1,.88-.19,1.55,1.55,0,0,1,.88.19.88.88,0,0,1,.28.75,1.48,1.48,0,0,1-.07.46.7.7,0,0,1-.21.29,1,1,0,0,1-.36.15,2.68,2.68,0,0,1-.52,0,2.55,2.55,0,0,1-.52,0,.85.85,0,0,1-.36-.15.56.56,0,0,1-.21-.29,1.24,1.24,0,0,1-.07-.46m2.32,1.47h.55V29.51a2.63,2.63,0,0,0-.07-.61,1,1,0,0,0-.25-.44,1.28,1.28,0,0,0-.51-.25,3.75,3.75,0,0,0-.83-.08,3.07,3.07,0,0,0-.89.1,1.23,1.23,0,0,0-.5.26.73.73,0,0,0-.21.37,2.1,2.1,0,0,0-.05.43v.26h.61c0-.15,0-.28,0-.39a.48.48,0,0,1,.11-.28.6.6,0,0,1,.31-.15,2.82,2.82,0,0,1,.58-.05,2.94,2.94,0,0,1,.59.05.64.64,0,0,1,.32.16.69.69,0,0,1,.13.3,3,3,0,0,1,0,.45v.89h0a2,2,0,0,0-.18-.21.52.52,0,0,0-.23-.13,1.63,1.63,0,0,0-.37-.07,4.17,4.17,0,0,0-.56,0,2.39,2.39,0,0,0-.78.11,1.09,1.09,0,0,0-.46.3,1.06,1.06,0,0,0-.22.48,4.06,4.06,0,0,0,0,.64,4,4,0,0,0,.06.63,1.19,1.19,0,0,0,.23.48,1,1,0,0,0,.46.31,2.33,2.33,0,0,0,.76.1l.47,0a3,3,0,0,0,.37-.08,1.08,1.08,0,0,0,.3-.16,1.23,1.23,0,0,0,.28-.24Zm-7.23,0h.6V30a1.93,1.93,0,0,1,.09-.64,1,1,0,0,1,.26-.41,1,1,0,0,1,.4-.21,2,2,0,0,1,.51-.06,1.14,1.14,0,0,1,.48.09.68.68,0,0,1,.28.25,1,1,0,0,1,.12.35,2.71,2.71,0,0,1,0,.41v3.28h.6V29.63a3.06,3.06,0,0,0-.06-.63,1.15,1.15,0,0,0-.23-.47.92.92,0,0,0-.44-.29,1.72,1.72,0,0,0-.69-.11,2.23,2.23,0,0,0-.47,0,1,1,0,0,0-.35.12.94.94,0,0,0-.28.21,2.36,2.36,0,0,0-.24.33h0V26.17h-.6Zm-5.17-1.62a2.88,2.88,0,0,0,.11.85,1.1,1.1,0,0,0,.37.52,1.47,1.47,0,0,0,.66.26,5.6,5.6,0,0,0,1,.07,4.61,4.61,0,0,0,1-.08,1.33,1.33,0,0,0,.66-.28,1.21,1.21,0,0,0,.36-.59,3.43,3.43,0,0,0,.12-1,4.37,4.37,0,0,0-.09-1,1.12,1.12,0,0,0-.31-.58,1.23,1.23,0,0,0-.63-.28,9.76,9.76,0,0,0-1-.12,4.14,4.14,0,0,1-.76-.1,1,1,0,0,1-.44-.19.71.71,0,0,1-.2-.36,3.2,3.2,0,0,1,0-.59,3.49,3.49,0,0,1,0-.62.55.55,0,0,1,.18-.37A.82.82,0,0,1,41,26.8a5.08,5.08,0,0,1,.76,0,4.69,4.69,0,0,1,.71,0A1.19,1.19,0,0,1,43,27a.66.66,0,0,1,.23.35,1.67,1.67,0,0,1,.07.55V28h.61a5.68,5.68,0,0,0-.1-1,1.12,1.12,0,0,0-.32-.59,1.25,1.25,0,0,0-.62-.3,5.53,5.53,0,0,0-1-.08,6.66,6.66,0,0,0-1,.06,1.27,1.27,0,0,0-.64.25,1.15,1.15,0,0,0-.34.58,3.74,3.74,0,0,0-.11,1,4,4,0,0,0,.07.83,1.12,1.12,0,0,0,.22.53,1,1,0,0,0,.44.31,2.82,2.82,0,0,0,.71.15l.71.05a6.13,6.13,0,0,1,.79.13.89.89,0,0,1,.4.21.69.69,0,0,1,.15.37,4.28,4.28,0,0,1,0,.54,5,5,0,0,1,0,.76.75.75,0,0,1-.2.42.71.71,0,0,1-.45.16,7.31,7.31,0,0,1-.77,0,7.69,7.69,0,0,1-.78,0,.92.92,0,0,1-.46-.17.61.61,0,0,1-.22-.35,2.53,2.53,0,0,1-.06-.62v-.4h-.6Zm-6.42.15a.87.87,0,0,1,.27-.75,1.55,1.55,0,0,1,.88-.19,1.59,1.59,0,0,1,.89.19.87.87,0,0,1,.27.75,1.24,1.24,0,0,1-.07.46.61.61,0,0,1-.2.29,1,1,0,0,1-.37.15,2.55,2.55,0,0,1-.52,0,2.68,2.68,0,0,1-.52,0,1,1,0,0,1-.36-.15.7.7,0,0,1-.21-.29,1.51,1.51,0,0,1-.06-.46m2.31,1.47h.55V29.51A2.18,2.18,0,0,0,36,28.9a.81.81,0,0,0-.25-.44,1.23,1.23,0,0,0-.5-.25,3.75,3.75,0,0,0-.83-.08,3.1,3.1,0,0,0-.9.1,1.25,1.25,0,0,0-.49.26.73.73,0,0,0-.21.37,2.1,2.1,0,0,0-.05.43v.26h.61a2.3,2.3,0,0,1,0-.39.48.48,0,0,1,.11-.28.57.57,0,0,1,.3-.15,2.9,2.9,0,0,1,.58-.05,3.12,3.12,0,0,1,.6.05.61.61,0,0,1,.31.16.52.52,0,0,1,.13.3,3,3,0,0,1,0,.45v.89h0a1.2,1.2,0,0,0-.17-.21.58.58,0,0,0-.23-.13,1.63,1.63,0,0,0-.37-.07,4.28,4.28,0,0,0-.56,0,2.35,2.35,0,0,0-.78.11,1,1,0,0,0-.46.3,1.06,1.06,0,0,0-.22.48,4.06,4.06,0,0,0,0,.64,3.06,3.06,0,0,0,.06.63,1.08,1.08,0,0,0,.23.48,1,1,0,0,0,.46.31,2.29,2.29,0,0,0,.76.1l.47,0L35,33a1.08,1.08,0,0,0,.3-.16,1.46,1.46,0,0,0,.27-.24ZM30.94,27h.61v-.81h-.61Zm0,6.08h.61V28.21h-.61Zm-4.55,0H27V30a1.7,1.7,0,0,1,.09-.64,1,1,0,0,1,.25-.41,1,1,0,0,1,.4-.21,2,2,0,0,1,.51-.06,1.14,1.14,0,0,1,.48.09A.6.6,0,0,1,29,29a.82.82,0,0,1,.13.35,1.84,1.84,0,0,1,0,.41v3.28h.61V29.63a3,3,0,0,0-.07-.63,1.15,1.15,0,0,0-.23-.47.92.92,0,0,0-.44-.29,1.72,1.72,0,0,0-.69-.11,2.13,2.13,0,0,0-.46,0,1.09,1.09,0,0,0-.36.12.94.94,0,0,0-.28.21,1.74,1.74,0,0,0-.23.33h0v-.62h-.61ZM21.9,30.64A10.26,10.26,0,0,0,22,31.87a1.84,1.84,0,0,0,.24.77.94.94,0,0,0,.54.39,3.06,3.06,0,0,0,.94.11,3.09,3.09,0,0,0,.95-.11.91.91,0,0,0,.54-.39,1.84,1.84,0,0,0,.24-.77,10.26,10.26,0,0,0,.06-1.23,10,10,0,0,0-.06-1.21,1.89,1.89,0,0,0-.24-.77.94.94,0,0,0-.54-.41,3,3,0,0,0-.95-.12,3.1,3.1,0,0,0-.95.12.94.94,0,0,0-.54.41,1.75,1.75,0,0,0-.23.77,10,10,0,0,0-.06,1.21m.67,0c0-.46,0-.81,0-1.07a1.5,1.5,0,0,1,.16-.59.54.54,0,0,1,.34-.25,3,3,0,0,1,.58-.05,3,3,0,0,1,.59.05.54.54,0,0,1,.34.25,1.5,1.5,0,0,1,.16.59c0,.26,0,.61,0,1.07s0,.8,0,1.06a1.5,1.5,0,0,1-.16.59.54.54,0,0,1-.34.25,3,3,0,0,1-.59.05,3,3,0,0,1-.58-.05.54.54,0,0,1-.34-.25,1.5,1.5,0,0,1-.16-.59c0-.26,0-.61,0-1.06M20.38,32.9a4.07,4.07,0,0,1-.05.69.78.78,0,0,1-.18.41.62.62,0,0,1-.36.19,2.41,2.41,0,0,1-.6.06,2.25,2.25,0,0,1-.49,0,.67.67,0,0,1-.31-.12.41.41,0,0,1-.17-.22,1,1,0,0,1-.06-.37h-.6a1.79,1.79,0,0,0,.09.65,1.08,1.08,0,0,0,.3.42,1.2,1.2,0,0,0,.47.22,3.06,3.06,0,0,0,.64.07,4,4,0,0,0,.92-.09,1.4,1.4,0,0,0,.6-.29,1.3,1.3,0,0,0,.31-.57A3.64,3.64,0,0,0,21,33V28.21h-.6v.65h0a1.17,1.17,0,0,0-.5-.58,1.69,1.69,0,0,0-.76-.15,2,2,0,0,0-.93.18,1.15,1.15,0,0,0-.49.51,1.88,1.88,0,0,0-.21.75,11.07,11.07,0,0,0,0,1.88,2,2,0,0,0,.21.76,1.18,1.18,0,0,0,.49.5,2,2,0,0,0,.93.18,1.7,1.7,0,0,0,.75-.14,1.13,1.13,0,0,0,.51-.56h0Zm-2.29-2.39c0-.32,0-.6,0-.82a1.43,1.43,0,0,1,.14-.55.67.67,0,0,1,.31-.31,1.53,1.53,0,0,1,.58-.09,2,2,0,0,1,.61.08.67.67,0,0,1,.37.29,1.22,1.22,0,0,1,.19.54,6.19,6.19,0,0,1,0,1.72,1.32,1.32,0,0,1-.19.55.7.7,0,0,1-.37.28,1.77,1.77,0,0,1-.61.08,1.53,1.53,0,0,1-.58-.09.67.67,0,0,1-.31-.31,1.38,1.38,0,0,1-.14-.55c0-.22,0-.49,0-.82m-4.53,1.08a.87.87,0,0,1,.27-.75,1.55,1.55,0,0,1,.88-.19,1.59,1.59,0,0,1,.89.19.87.87,0,0,1,.27.75,1.24,1.24,0,0,1-.07.46.61.61,0,0,1-.2.29,1,1,0,0,1-.37.15,2.62,2.62,0,0,1-.52,0,2.68,2.68,0,0,1-.52,0,1,1,0,0,1-.36-.15.7.7,0,0,1-.21-.29,1.51,1.51,0,0,1-.06-.46m2.31,1.47h.55V29.51a2.18,2.18,0,0,0-.07-.61.81.81,0,0,0-.25-.44,1.23,1.23,0,0,0-.5-.25,3.82,3.82,0,0,0-.83-.08,3.1,3.1,0,0,0-.9.1,1.25,1.25,0,0,0-.49.26.73.73,0,0,0-.21.37,2.1,2.1,0,0,0-.05.43v.26h.61c0-.15,0-.28,0-.39a.56.56,0,0,1,.12-.28.53.53,0,0,1,.3-.15,2.82,2.82,0,0,1,.58-.05,2.94,2.94,0,0,1,.59.05.52.52,0,0,1,.46.46c0,.13,0,.28,0,.45v.89h0a1.2,1.2,0,0,0-.17-.21.58.58,0,0,0-.23-.13,1.63,1.63,0,0,0-.37-.07,4.39,4.39,0,0,0-.56,0,2.35,2.35,0,0,0-.78.11,1,1,0,0,0-.46.3A1.06,1.06,0,0,0,13,31a4.06,4.06,0,0,0-.05.64,3.06,3.06,0,0,0,.06.63,1.08,1.08,0,0,0,.23.48,1,1,0,0,0,.46.31,2.29,2.29,0,0,0,.76.1l.46,0L15.3,33a1.08,1.08,0,0,0,.3-.16,1.46,1.46,0,0,0,.27-.24ZM10,32.14a1.89,1.89,0,0,0,.05.46.57.57,0,0,0,.18.31.69.69,0,0,0,.35.18,2.79,2.79,0,0,0,.55,0,2.46,2.46,0,0,0,.49,0,.65.65,0,0,0,.37-.22,1.2,1.2,0,0,0,.25-.52,3.79,3.79,0,0,0,.09-.92h-.55a3.62,3.62,0,0,1,0,.63.76.76,0,0,1-.12.35.33.33,0,0,1-.2.15,1.26,1.26,0,0,1-.3,0,.52.52,0,0,1-.41-.14.73.73,0,0,1-.1-.44V28.76h1.56v-.55H10.65V27.08H10v1.13H9.53v.55H10Zm-4-.55a.87.87,0,0,1,.27-.75,1.55,1.55,0,0,1,.88-.19,1.53,1.53,0,0,1,.88.19.85.85,0,0,1,.28.75,1.24,1.24,0,0,1-.07.46.56.56,0,0,1-.21.29.86.86,0,0,1-.35.15,2.72,2.72,0,0,1-.53,0,2.68,2.68,0,0,1-.52,0,1,1,0,0,1-.36-.15.62.62,0,0,1-.21-.29A1.51,1.51,0,0,1,6,31.59m2.31,1.47h.55V29.51a2.18,2.18,0,0,0-.07-.61.81.81,0,0,0-.25-.44A1.22,1.22,0,0,0,8,28.21a3.66,3.66,0,0,0-.82-.08,3.1,3.1,0,0,0-.9.1,1.25,1.25,0,0,0-.49.26.73.73,0,0,0-.21.37,2.1,2.1,0,0,0,0,.43v.26h.61a2.3,2.3,0,0,1,0-.39.48.48,0,0,1,.11-.28.53.53,0,0,1,.3-.15,2.9,2.9,0,0,1,.58-.05,2.94,2.94,0,0,1,.59.05.6.6,0,0,1,.32.16.7.7,0,0,1,.14.3c0,.13,0,.28,0,.45v.89h0a2,2,0,0,0-.18-.21.58.58,0,0,0-.23-.13,1.63,1.63,0,0,0-.37-.07,4.28,4.28,0,0,0-.56,0,2.35,2.35,0,0,0-.78.11,1,1,0,0,0-.46.3,1.06,1.06,0,0,0-.22.48,4.06,4.06,0,0,0,0,.64,3.06,3.06,0,0,0,.06.63,1.08,1.08,0,0,0,.23.48,1,1,0,0,0,.46.31,2.29,2.29,0,0,0,.76.1l.47,0L7.75,33a1.08,1.08,0,0,0,.3-.16,1.46,1.46,0,0,0,.27-.24Zm-7.85,0h.66V30.38H3a4.11,4.11,0,0,0,.73-.07A1.29,1.29,0,0,0,4.28,30a1.46,1.46,0,0,0,.37-.64,4.17,4.17,0,0,0,.12-1.11,7.66,7.66,0,0,0,0-.86,1.77,1.77,0,0,0-.22-.66,1,1,0,0,0-.43-.43,1.54,1.54,0,0,0-.72-.15H.47Zm.66-6.23h2a1.87,1.87,0,0,1,.45.05.53.53,0,0,1,.29.19,1,1,0,0,1,.16.44,5,5,0,0,1,.05.76,4.67,4.67,0,0,1-.05.72,1.12,1.12,0,0,1-.18.44.65.65,0,0,1-.33.22,1.73,1.73,0,0,1-.49.06H1.13Z"/><path class="cls-2" d="M89.78,31.56a3.21,3.21,0,0,0,.1.86,1,1,0,0,0,.3.47,1,1,0,0,0,.51.21,5,5,0,0,0,.72,0,3.91,3.91,0,0,0,.93-.08,1,1,0,0,0,.54-.27.86.86,0,0,0,.25-.48,3.66,3.66,0,0,0,.06-.72,2.72,2.72,0,0,0-.06-.64.62.62,0,0,0-.23-.37,1.31,1.31,0,0,0-.5-.18c-.21,0-.5-.06-.86-.08s-.46,0-.61-.05a.67.67,0,0,1-.33-.12.33.33,0,0,1-.14-.22,2.22,2.22,0,0,1,0-.41,1.82,1.82,0,0,1,0-.45.44.44,0,0,1,.14-.26.59.59,0,0,1,.3-.1,3.64,3.64,0,0,1,.52,0l.55,0a.72.72,0,0,1,.34.1.37.37,0,0,1,.16.24,1.23,1.23,0,0,1,.06.43h.6a2.41,2.41,0,0,0-.07-.64.7.7,0,0,0-.25-.41,1.09,1.09,0,0,0-.51-.22,4,4,0,0,0-.86-.07,3.39,3.39,0,0,0-.86.08,1,1,0,0,0-.49.24.84.84,0,0,0-.23.45,4,4,0,0,0-.05.65,2.8,2.8,0,0,0,.07.65.8.8,0,0,0,.25.39,1.08,1.08,0,0,0,.47.2,6.36,6.36,0,0,0,.76.08l.67.06a1,1,0,0,1,.37.11.31.31,0,0,1,.14.21,1.87,1.87,0,0,1,0,.38,2.19,2.19,0,0,1,0,.49.5.5,0,0,1-.17.3.8.8,0,0,1-.35.14,4.68,4.68,0,0,1-.59,0,2.75,2.75,0,0,1-.55,0,.69.69,0,0,1-.32-.16.68.68,0,0,1-.15-.32,2.59,2.59,0,0,1,0-.51Zm-1-.78v-.73a5.26,5.26,0,0,0-.06-.86,1.26,1.26,0,0,0-.25-.6,1.13,1.13,0,0,0-.51-.35,2.93,2.93,0,0,0-.87-.11,3.15,3.15,0,0,0-.9.11,1,1,0,0,0-.54.39,1.59,1.59,0,0,0-.27.77,8.38,8.38,0,0,0-.07,1.24,10.49,10.49,0,0,0,.05,1.22,1.63,1.63,0,0,0,.24.77,1,1,0,0,0,.54.4,3.38,3.38,0,0,0,.95.11,4.11,4.11,0,0,0,.87-.07,1.21,1.21,0,0,0,.51-.23.76.76,0,0,0,.25-.42,2.77,2.77,0,0,0,.06-.62v-.18h-.61a2.44,2.44,0,0,1-.05.55.46.46,0,0,1-.18.29.73.73,0,0,1-.36.11l-.6,0a1.83,1.83,0,0,1-.51-.06.63.63,0,0,1-.31-.22,1.15,1.15,0,0,1-.15-.42,4.16,4.16,0,0,1,0-.66v-.45ZM86,30.17c0-.26,0-.48,0-.66a1,1,0,0,1,.12-.47.64.64,0,0,1,.33-.27,2.25,2.25,0,0,1,1.26,0A.64.64,0,0,1,88,29a1,1,0,0,1,.12.47c0,.18,0,.4,0,.66Zm-1.51-.35a4.42,4.42,0,0,0-.06-.8,1,1,0,0,0-.24-.52.88.88,0,0,0-.48-.28,2.94,2.94,0,0,0-.8-.09,3.15,3.15,0,0,0-.9.11,1,1,0,0,0-.54.39,1.7,1.7,0,0,0-.28.77,10.33,10.33,0,0,0-.06,1.24,10.49,10.49,0,0,0,0,1.22,1.75,1.75,0,0,0,.23.77,1,1,0,0,0,.55.4,3.38,3.38,0,0,0,1,.11,3.69,3.69,0,0,0,.71-.06,1.28,1.28,0,0,0,.53-.23,1.06,1.06,0,0,0,.32-.46,2.37,2.37,0,0,0,.11-.77V31.3H84a3.75,3.75,0,0,1,0,.64.82.82,0,0,1-.16.4.62.62,0,0,1-.33.2,2.58,2.58,0,0,1-.53.05,3.09,3.09,0,0,1-.59-.05.5.5,0,0,1-.33-.25,1.35,1.35,0,0,1-.16-.59,9.93,9.93,0,0,1,0-1.06,10,10,0,0,1,0-1.07A1.35,1.35,0,0,1,82,29a.5.5,0,0,1,.33-.25,3.09,3.09,0,0,1,.59-.05,2.17,2.17,0,0,1,.49.05.58.58,0,0,1,.3.19.86.86,0,0,1,.15.35,4,4,0,0,1,0,.55Z"/></g></svg>